<?xml version="1.0" encoding="UTF-8" standalone="no"?>
<svg width="416px" height="416px" viewBox="0 0 416 416" version="1.1" xmlns="http://www.w3.org/2000/svg" xmlns:xlink="http://www.w3.org/1999/xlink" xmlns:sketch="http://www.bohemiancoding.com/sketch/ns">
    <!-- Generator: Sketch 3.1.1 (8761) - http://www.bohemiancoding.com/sketch -->
    <title>Shape</title>
    <desc>Created with Sketch.</desc>
    <defs></defs>
    <g id="Page-1" stroke="none" stroke-width="1" fill="none" fill-rule="evenodd" sketch:type="MSPage">
        <path d="M208,0 C93.1,0 0,93.1 0,208 C0,322.9 93.1,416 208,416 C322.9,416 416,322.9 416,208 C416,93.1 322.9,0 208,0 L208,0 Z M208,398.7 C149.4,398.7 96.9,372.1 61.9,330.4 C79.7,322.7 124.1,306.7 152.2,298.5 C154.4,297.8 154.8,297.7 154.8,287.8 C154.8,277.2 153.6,269.7 151,264.2 C147.5,256.7 143.3,244 141.8,232.6 C137.6,227.7 131.9,218.1 128.2,199.7 C125,183.5 126.5,177.6 128.6,172.1 C128.8,171.5 129.1,170.9 129.2,170.3 C130,166.6 128.9,146.8 126.1,131.5 C124.2,121 126.6,98.7 141.1,80.2 C150.2,68.5 167.7,54.2 199.1,52.2 L216.6,52.2 C248.5,54.2 266,68.5 275.1,80.2 C289.6,98.7 292,121 290,131.5 C287.2,146.8 286.1,166.5 286.9,170.3 C287,170.9 287.3,171.5 287.5,172 C289.6,177.5 291.2,183.4 287.9,199.6 C284.2,218 278.5,227.6 274.3,232.5 C272.8,243.9 268.6,256.5 265.1,264.1 C261.8,271 258.5,279.2 258.5,287.4 C258.5,297.3 258.9,297.4 261.2,298.1 C287.9,306 333.9,321.9 354.2,330.2 C319.2,372 266.7,398.7 208,398.7 L208,398.7 Z" id="Shape" fill-opacity="0.5" fill="#85929C" sketch:type="MSShapeGroup"></path>
    </g>
</svg>